<svg fill="none" height="104" viewBox="0 0 104 104" width="104" xmlns="http://www.w3.org/2000/svg"><path d="m6.85477 31.3761v-.0021c.09694-.3609.04744-.7383-.14025-1.0621-.25987-.4496-.73217-.7013-1.21891-.7013-.23719 0-.47849.0598-.69918.1856-.66824.3878-.89924 1.2479-.51355 1.9182.18974.3238.49293.5568.8518.6517l.40012.0516c.21243-.0021.45373-.066.66617-.1898.32587-.1897.55687-.4908.6538-.8518zm95.76623 32.0962c3.193-13.7732.799-27.8661-6.746-39.6799-7.4764-11.7086-19.1149-19.72749-32.7685-22.58401-16.3388-3.42163-31.3144.4331-44.5122 11.45081-.2825.2372-.53.5074-.7919.792l-.3857.4104-.0598.1568.0721.1526c.7137.6332 1.2561.3506 1.6541.1444l.1094-.0557c4.4157-2.2172 9.1697-3.7413 14.1341-4.53332 16.9535-2.70184 34.6267 3.92072 45.0319 16.87512 6.9134 8.6067 10.0917 19.2037 8.9511 29.8357-1.1364 10.6361-6.4885 20.3442-15.0704 27.3339-7.0042 5.7089-15.2273 9.1388-24.4403 10.1906-10.4237 1.188-20.4081-.7837-29.6727-5.8739l-.1341-.0887c-.1176-.0825-.2516-.1815-.4187-.1959-.2227-.0165-.431.0124-.6332.0412l-.2433.033-.1527.0887-.033.1774.0434.2166c.0309.1897.066.4042.1959.5713.2104.2702.4682.495.7157.7136l.1815.1588c7.9405 7.1258 17.2917 11.4822 27.7938 12.9542 2.3471.33 4.6859.491 7.0041.491 23.4627 0 44.7535-16.3987 50.1754-39.7767zm-101.920636-8.2561c.220684.1237.455806.1877.701246.1877l.39806-.0557c.32587-.0908.62904-.3218.82085-.6476.18562-.3238.23307-.7013.13819-1.0643-.09693-.3609-.33-.6641-.6538-.8538-.32381-.1836-.70124-.229-1.06424-.1382-.365053.0969-.666177.3279-.853862.6538-.385681.6703-.1546836 1.5303.513556 1.9181zm-.303181-9.7472v.002c.030937.3733.208309.7116.494992.9508.255745.2166.567185.3321.897175.3321l.13613-.0083c.36299-.0309.7033-.2083.94461-.497.23925-.2826.35268-.6456.32174-1.0251-.033-.3712-.20832-.7095-.495-.9487-.25162-.2124-.57129-.328-.90129-.328-.41662 0-.808491.1816-1.076612.4992-.239246.2887-.354745.6517-.321745 1.023zm8.266377 30.0398c-.77342 0-1.40248.6311-1.40248 1.4046 0 .7734.62906 1.4024 1.40248 1.4024.77343 0 1.40244-.629 1.40244-1.4024 0-.7735-.62901-1.4046-1.40244-1.4046zm-5.61198-35.9344.14025.0062c.31762 0 .63112-.1155.89099-.33.28255-.2392.45992-.5775.49086-.9508.03506-.3733-.08044-.7383-.31968-1.025-.24131-.2867-.57955-.462-.95286-.495-.37124-.033-.73836.0825-1.02505.3217-.28668.2413-.46405.5775-.49705.9529-.03094.3733.08456.7383.32381 1.023.23924.2866.57542.462.94873.497zm1.58604 31.8322.27637.0227c.26193 0 .54243-.0887.78168-.2558.30731-.2145.51149-.5342.57749-.9054.06394-.3692-.01856-.7404-.23306-1.0457-.21449-.3094-.53624-.5135-.90748-.5816-.37125-.0619-.74044.0206-1.04774.2372-.30731.2124-.51149.5321-.57543.9033-.06394.3692.01856.7405.23306 1.0498.21243.3012.53005.5074.89511.5755zm-2.6709-7.922c.3403.1279.72805.1135 1.07249-.0474.33824-.1568.59605-.4373.72393-.7941.12787-.3506.11343-.7321-.04538-1.0704-.15675-.3382-.43725-.596-.79199-.726-.15469-.0557-.31762-.0845-.48055-.0845-.20419 0-.40838.0453-.594.132-.34031.1588-.59605.4372-.72392.7899-.261937.728.11343 1.5345.83942 1.8005zm8.44168-39.4488c-.1258-.3506-.3836-.6311-.72598-.7899-.18562-.0887-.38981-.132-.59399-.132-.16087 0-.32381.0268-.47644.0825-.35474.132-.6373.3898-.78992.7259-.16087.3404-.17737.7219-.0495 1.0746.12581.3506.38362.629.72599.7899.33412.1568.72393.1733 1.07042.0475.35475-.1279.63522-.3857.79402-.726.1568-.3403.1733-.7198.0454-1.0725zm2.5678 57.6151c-.3672.0639-.6889.2701-.9054.5795-.2145.3073-.297.6765-.2331 1.0457s.2702.6909.5795.9054c.2372.1691.5157.2578.8023.2578l.264-.0247c.3486-.064.6703-.2702.8848-.5755.2145-.3093.2991-.6826.2331-1.0498-.0639-.3712-.2702-.6909-.5754-.9054-.3053-.2124-.6786-.299-1.0498-.233zm1.2189-64.3305c-.2393-.1691-.5177-.2537-.8023-.2537-.0825 0-.165.0062-.2475.0206-.3692.064-.6909.2702-.9054.5775-.2166.3053-.2991.6765-.2331 1.0478.064.3691.2702.6909.5775.9054.2372.167.5136.2557.7982.2557l.2702-.0247c.3465-.064.6703-.2702.8868-.5755.2125-.3073.295-.6806.231-1.0477-.066-.3712-.2702-.6909-.5754-.9054z" fill="#fff"/></svg>